<?xml version="1.0" encoding="UTF-8" standalone="no"?>
<svg width="205px" height="33px" viewBox="0 0 205 33" version="1.1" xmlns="http://www.w3.org/2000/svg" xmlns:xlink="http://www.w3.org/1999/xlink">
    <!-- Generator: Sketch 39.1 (31720) - http://www.bohemiancoding.com/sketch -->
    <title>Group 6</title>
    <desc>Created with Sketch.</desc>
    <defs></defs>
    <g id="Page-1" stroke="none" stroke-width="1" fill="none" fill-rule="evenodd">
        <g id="Group-6" fill="#FFFFFF">
            <g id="outside">
                <path d="M15.8054805,4.96098738 C14.5367152,2.06699201 11.6334108,0.0438787357 8.2547373,0.0438787357 C3.70796152,0.0438787357 0.0220714901,3.70770464 0.0220714901,8.22726294 C0.0220714901,12.2757375 2.97962921,15.6375726 6.86423342,16.2944117 L6.86423342,4.95829713 L15.5052218,4.95829713 C15.6057681,4.95829713 15.7058545,4.9591943 15.8054811,4.96098863 L15.8054805,4.96098738 Z" id="Combined-Shape"></path>
                <path d="M15.7238681,28.0082762 C14.4254545,30.8312988 11.5595081,32.7928163 8.23266581,32.7928163 C3.68589003,32.7928163 0,29.1289904 0,24.6094321 C0,20.5609575 2.95755772,17.1991225 6.84216193,16.5422833 L6.84216193,28.0100341 L15.4831503,28.0100341 C15.5636848,28.0100341 15.6439243,28.0094477 15.7238687,28.0082748 L15.7238681,28.0082762 Z" id="Combined-Shape"></path>
                <path d="M27.7931057,17.0249494 C30.8085921,18.2396803 32.9354808,21.1790773 32.9354808,24.6122621 C32.9354808,29.1318204 29.2495907,32.7956463 24.702815,32.7956463 C21.3413798,32.7956463 18.4504753,30.7931246 17.1716193,27.9227659 C18.340488,27.7942034 19.4401453,27.5280557 20.4706067,27.1243197 C21.9825114,26.5319539 23.2847163,25.7202054 24.3772605,24.6890499 C25.4698047,23.6578945 26.3140307,22.4402717 26.909964,21.0361452 C27.440534,19.786026 27.7349125,18.4489715 27.7931057,17.0249494 L27.7931057,17.0249494 Z" id="Combined-Shape"></path>
                <path d="M24.7642119,0.0438787357 C24.7642119,0.0438787357 19.5111972,-0.175515114 17.1716193,5.00217587 C17.1716193,5.00217587 26.8830749,5.5287207 27.7659345,15.8402236 C27.7659345,15.8402236 32.9306632,14.3044678 32.9306632,7.72265748 L32.9306632,0.0438787356 L24.8524978,0.0438787356 L24.7642119,0.0438787357 Z" id="Path-3"></path>
            </g>
            <g id="inside" transform="translate(10.871212, 8.929412)">
                <path d="M5.54446021,15.6160539 C5.40764306,12.1732012 3.13101694,9.27704989 3.20504306e-08,8.20532357 L0,15.6595337 L4.56879845,15.6595337 C4.90235191,15.6595337 5.22757227,15.6450405 5.54446021,15.6160539 L5.54446021,15.6160539 Z" id="Path"></path>
                <path d="M12.6183248,7.85429369 C8.73254328,8.40373181 5.72058918,11.6501355 5.5620155,15.6258016 C6.39344639,15.5486451 7.16743379,15.3715716 7.88399015,15.0945789 C8.87721217,14.710638 9.72143822,14.1731289 10.4166936,13.4820353 C11.1119491,12.7909418 11.6526952,11.9682237 12.0389482,11.0138565 C12.4252012,10.0594892 12.6183248,9.02286443 12.6183248,7.90395107 L12.6183248,7.85429369 L12.6183248,7.85429369 Z" id="Path"></path>
                <path d="M5.5620155,0.0438787357 C5.78184633,3.95813445 8.76913799,7.13796055 12.6107808,7.6816994 C12.594459,6.61874617 12.4017127,5.62595434 12.0325366,4.70329661 C11.6462836,3.7379596 11.1055375,2.90975675 10.4102821,2.21866321 C9.71502669,1.52756966 8.87080063,0.984575741 7.87757861,0.589665145 C7.16286448,0.305490832 6.39101422,0.123562765 5.5620155,0.0438787357 L5.5620155,0.0438787357 Z" id="Path"></path>
                <path d="M3.20504281e-08,7.32257396 C3.0908329,6.26460237 5.34906507,3.42873529 5.53813773,0.0441293656 C5.22324684,0.0147097484 4.90013397,0 4.56879845,0 L0,0 L0,7.32257425 L3.20504281e-08,7.32257396 Z" id="Path"></path>
            </g>
            <path d="M43.4190353,15.8314478 C44.3901857,15.8314478 45.2730365,15.6778738 46.0676141,15.3707211 C46.8621917,15.0635684 47.5375727,14.6335611 48.0937769,14.0806863 C48.6499811,13.5278114 49.0825783,12.869637 49.3915805,12.1061432 C49.7005832,11.3426494 49.8550818,10.5133495 49.8550818,9.61821886 L49.8550818,9.56556438 C49.8550818,8.67043369 49.7005832,7.83674605 49.3915805,7.06447644 C49.0825783,6.29220683 48.6499811,5.62964455 48.0937769,5.07676972 C47.5375727,4.52389488 46.8621917,4.08949974 46.0676141,3.77357127 C45.2730365,3.45764279 44.3901857,3.29968092 43.4190353,3.29968092 L39.7639966,3.29968092 L39.7639966,15.8314478 L43.4190353,15.8314478 L43.4190353,15.8314478 Z M36.5062446,0.351029885 L43.4190353,0.351029885 C44.8669323,0.351029885 46.1956227,0.583584859 47.4051464,1.04870178 C48.6146703,1.51381871 49.656434,2.15882967 50.5304694,2.98375403 C51.4045048,3.80867838 52.0798858,4.77838874 52.5566322,5.8929142 C53.0333786,7.00743966 53.2717485,8.21409282 53.2717485,9.51290989 L53.2717485,9.56556438 C53.2717485,10.8643814 53.0333786,12.0754224 52.5566322,13.1987237 C52.0798858,14.3220249 51.4045048,15.2961231 50.5304694,16.1210475 C49.656434,16.9459718 48.6146703,17.5953706 47.4051464,18.0692633 C46.1956227,18.5431561 44.8669323,18.7800989 43.4190353,18.7800989 L36.5062446,18.7800989 L36.5062446,0.351029885 L36.5062446,0.351029885 Z M64.3810649,10.8555992 C64.3280933,10.3466033 64.2133224,9.86832989 64.0367496,9.42076455 C63.8601768,8.97319921 63.6218074,8.58707019 63.3216334,8.26236593 C63.0214598,7.93766166 62.6639052,7.67877971 62.2489589,7.48571231 C61.8340132,7.2926449 61.3616877,7.19611265 60.8319693,7.19611265 C59.8431617,7.19611265 59.0265249,7.53397554 58.3820339,8.20971144 C57.7375433,8.88544735 57.3446747,9.76740112 57.2034163,10.8555992 L64.3810649,10.8555992 L64.3810649,10.8555992 Z M61.2027703,19.0960258 C60.1963055,19.0960258 59.2560693,18.9205126 58.3820339,18.5694809 C57.5079984,18.2184493 56.7487471,17.7270124 56.1042561,17.0951554 C55.4597655,16.4632985 54.9521265,15.7042039 54.5813233,14.817849 C54.2105205,13.9314941 54.0251217,12.9530081 54.0251217,11.8823616 L54.0251217,11.8297071 C54.0251217,10.829267 54.1928637,9.89027141 54.5283517,9.01269231 C54.8638401,8.13511321 55.3361651,7.36724301 55.9453414,6.70905868 C56.5545176,6.05087436 57.2740411,5.53311046 58.1039331,5.15575144 C58.9338255,4.77839243 59.8519903,4.58971575 60.8584551,4.58971575 C61.9708639,4.58971575 62.9464141,4.79155592 63.7851346,5.1952423 C64.6238557,5.59892869 65.3213077,6.14301957 65.8775119,6.82753127 C66.4337165,7.51204297 66.8530704,8.30624014 67.1355868,9.21014662 C67.4181037,10.1140531 67.5593595,11.0662121 67.5593595,12.0666523 C67.5593595,12.207065 67.5549452,12.3518633 67.5461166,12.5010518 C67.537288,12.6502402 67.5240455,12.8038143 67.5063879,12.9617785 L57.2299021,12.9617785 C57.4064749,14.1026313 57.8611432,14.9758095 58.5939202,15.581339 C59.3266976,16.1868686 60.2139627,16.4896289 61.2557419,16.4896289 C62.0503195,16.4896289 62.7389434,16.3492183 63.3216334,16.068393 C63.9043238,15.7875677 64.4781768,15.3751117 65.0432096,14.8310127 L66.9237005,16.4896289 C66.2527241,17.2794501 65.4537442,17.9112975 64.5267367,18.3851902 C63.5997297,18.859083 62.4917519,19.0960258 61.2027703,19.0960258 L61.2027703,19.0960258 L61.2027703,19.0960258 Z M68.7365057,4.87931541 L71.9412861,4.87931541 L71.9412861,6.98549472 C72.1708305,6.66956624 72.418029,6.37119382 72.6828882,6.09036851 C72.9477474,5.8095432 73.2523308,5.55504908 73.5966479,5.32687851 C73.9409649,5.09870794 74.3294191,4.91880693 74.7620225,4.78717006 C75.1946259,4.6555332 75.6757796,4.58971575 76.205498,4.58971575 C77.2119628,4.58971575 78.0639139,4.81349507 78.7613765,5.26106041 C79.4588392,5.70862575 79.9929635,6.30098276 80.3637667,7.0381492 C80.9287995,6.30098276 81.5953519,5.70862575 82.3634437,5.26106041 C83.1315351,4.81349507 84.045286,4.58971575 85.1047228,4.58971575 C86.640906,4.58971575 87.8415832,5.05043787 88.70679,5.97189592 C89.5719964,6.89335398 90.0045936,8.20531506 90.0045936,9.90781851 L90.0045936,18.7800989 L86.7998132,18.7800989 L86.7998132,10.8819264 C86.7998132,9.77617678 86.5526148,8.93371348 86.0582112,8.35451127 C85.5638071,7.77530907 84.8663551,7.48571231 83.9658339,7.48571231 C83.0829699,7.48571231 82.3634464,7.77969689 81.8072422,8.36767489 C81.2510375,8.95565289 80.9729398,9.81127968 80.9729398,10.9345809 L80.9729398,18.7800989 L77.7681595,18.7800989 L77.7681595,10.8555992 C77.7681595,9.76740112 77.520961,8.93371348 77.0265574,8.35451127 C76.5321534,7.77530907 75.8347014,7.48571231 74.9341802,7.48571231 C74.0336585,7.48571231 73.3097211,7.79286038 72.7623455,8.40716575 C72.2149695,9.02147113 71.9412861,9.87271009 71.9412861,10.9609082 L71.9412861,18.7800989 L68.7365057,18.7800989 L68.7365057,4.87931541 L68.7365057,4.87931541 Z M98.5447885,16.3316654 C99.1981077,16.3316654 99.7852036,16.213194 100.306093,15.9762477 C100.826983,15.7393013 101.272823,15.4189897 101.643626,15.0153033 C102.014429,14.611617 102.296941,14.1421192 102.491171,13.6067959 C102.685401,13.0714727 102.782515,12.5054427 102.782515,11.9086889 L102.782515,11.8560344 C102.782515,11.241729 102.676572,10.6625355 102.464685,10.1184364 C102.252798,9.5743374 101.957043,9.1004518 101.577411,8.69676541 C101.19778,8.29307902 100.747526,7.97276746 100.226636,7.7358211 C99.7057463,7.49887474 99.127479,7.38040334 98.491817,7.38040334 C97.856155,7.38040334 97.2778877,7.49887474 96.7569978,7.7358211 C96.236108,7.97276746 95.7902683,8.28869119 95.4194655,8.68360179 C95.0486627,9.07851239 94.7661503,9.54801016 94.5719203,10.0921092 C94.3776903,10.6362082 94.2805766,11.2066261 94.2805766,11.8033799 L94.2805766,11.8560344 C94.2805766,12.4703397 94.3865189,13.0451454 94.5984061,13.5804687 C94.8102933,14.1157919 95.1060486,14.5896775 95.48568,15.0021397 C95.8653114,15.4146019 96.3155654,15.7393013 96.8364552,15.9762477 C97.357345,16.213194 97.9267837,16.3316654 98.5447885,16.3316654 L98.5447885,16.3316654 L98.5447885,16.3316654 Z M98.491817,19.0960258 C97.4323801,19.0960258 96.4480014,18.9073491 95.5386516,18.5299901 C94.6293018,18.1526311 93.8435647,17.639255 93.1814164,16.9898465 C92.5192686,16.3404379 92.0028006,15.5769556 91.6319978,14.6993765 C91.261195,13.8217973 91.0757963,12.8915775 91.0757963,11.9086889 L91.0757963,11.8560344 C91.0757963,10.8555942 91.2656093,9.91659865 91.6452407,9.03901955 C92.0248721,8.16144045 92.5457544,7.39357025 93.2079022,6.73538593 C93.8700505,6.0772016 94.6557876,5.55504987 95.5651374,5.16891506 C96.4744872,4.78278026 97.4676945,4.58971575 98.5447885,4.58971575 C99.6218825,4.58971575 100.61509,4.77839243 101.52444,5.15575144 C102.43379,5.53311046 103.219527,6.05087436 103.881675,6.70905868 C104.543823,7.36724301 105.060291,8.13072538 105.431093,8.99952869 C105.801896,9.868332 105.987295,10.8029397 105.987295,11.8033799 L105.987295,11.8560344 C105.987295,12.838923 105.797482,13.7691429 105.417851,14.646722 C105.038219,15.5243011 104.517337,16.2921713 103.855189,16.9503556 C103.193041,17.6085399 102.402889,18.1306916 101.484711,18.5168265 C100.566533,18.9029613 99.568911,19.0960258 98.491817,19.0960258 L98.491817,19.0960258 L98.491817,19.0960258 Z M113.653459,19.0960258 C112.61168,19.0960258 111.649372,18.9073491 110.766508,18.5299901 C109.883644,18.1526311 109.119978,17.639255 108.475487,16.9898465 C107.830997,16.3404379 107.327772,15.5769556 106.965797,14.6993765 C106.603823,13.8217973 106.422839,12.8915775 106.422839,11.9086889 L106.422839,11.8560344 C106.422839,10.8731458 106.603823,9.93853806 106.965797,9.05218317 C107.327772,8.16582828 107.830997,7.39357025 108.475487,6.73538593 C109.119978,6.0772016 109.888058,5.55504987 110.779751,5.16891506 C111.671444,4.78278026 112.638166,4.58971575 113.679945,4.58971575 C115.004241,4.58971575 116.10339,4.80910724 116.977425,5.24789679 C117.851461,5.68668634 118.615127,6.26587986 119.268446,6.98549472 L117.282012,9.11800127 C116.787608,8.60900539 116.262312,8.19216157 115.706108,7.86745731 C115.149903,7.54275304 114.465694,7.38040334 113.653459,7.38040334 C113.070769,7.38040334 112.53223,7.49887474 112.037826,7.7358211 C111.543422,7.97276746 111.119654,8.28869119 110.766508,8.68360179 C110.413362,9.07851239 110.135265,9.54801016 109.932206,10.0921092 C109.729147,10.6362082 109.627619,11.2066261 109.627619,11.8033799 L109.627619,11.8560344 C109.627619,12.4703397 109.729147,13.0495333 109.932206,13.5936323 C110.135265,14.1377314 110.422191,14.611617 110.792994,15.0153033 C111.163797,15.4189897 111.605222,15.7393013 112.117283,15.9762477 C112.629344,16.213194 113.194369,16.3316654 113.812374,16.3316654 C114.571637,16.3316654 115.238189,16.1693157 115.812051,15.8446115 C116.385912,15.5199072 116.928866,15.1030634 117.440927,14.5940675 L119.374389,16.4896289 C118.685756,17.2618985 117.900018,17.8893581 117.017154,18.3720266 C116.13429,18.8546951 115.01307,19.0960258 113.653459,19.0960258 L113.653459,19.0960258 L113.653459,19.0960258 Z M120.260192,4.87931541 L123.464972,4.87931541 L123.464972,8.01225713 C123.906404,6.95916221 124.533228,6.11669891 125.345463,5.48484196 C126.157698,4.85298501 127.181805,4.56338825 128.417815,4.61604299 L128.417815,7.98592989 L128.232414,7.98592989 C127.526123,7.98592989 126.881641,8.10001346 126.298951,8.32818403 C125.716261,8.5563546 125.213036,8.89860531 124.789262,9.35494645 C124.365487,9.81128758 124.038832,10.3860933 123.809287,11.0793808 C123.579743,11.7726682 123.464972,12.5756411 123.464972,13.4883233 L123.464972,18.7800989 L120.260192,18.7800989 L120.260192,4.87931541 L120.260192,4.87931541 Z M137.779069,12.9617785 C137.372951,12.8038143 136.891798,12.6721794 136.335593,12.5668699 C135.779389,12.4615604 135.192293,12.4089064 134.574289,12.4089064 C133.567824,12.4089064 132.782086,12.601971 132.217053,12.9881058 C131.652021,13.3742406 131.369508,13.9007801 131.369508,14.5677402 L131.369508,14.6203947 C131.369508,15.2873548 131.629949,15.7963431 132.150839,16.1473747 C132.671729,16.4984064 133.311795,16.6739196 134.071059,16.6739196 C134.600777,16.6739196 135.090759,16.6037143 135.54102,16.4633016 C135.99128,16.322889 136.384149,16.1254366 136.719637,15.8709387 C137.055126,15.6164408 137.315567,15.3092927 137.500968,14.9494852 C137.68637,14.5896778 137.779069,14.1903853 137.779069,13.7515958 L137.779069,12.9617785 L137.779069,12.9617785 Z M137.699612,18.7800989 L137.699612,17.0688282 C137.222865,17.6304788 136.613698,18.1043644 135.872092,18.4904992 C135.130487,18.876634 134.229979,19.0696985 133.170542,19.0696985 C132.499565,19.0696985 131.863913,18.9775541 131.263565,18.7932625 C130.663217,18.6089709 130.137921,18.3369254 129.687661,17.977118 C129.2374,17.6173106 128.875431,17.1697519 128.601743,16.6344287 C128.328056,16.0991054 128.191214,15.4804215 128.191214,14.7783582 L128.191214,14.7257037 C128.191214,13.9534341 128.33247,13.2820961 128.614986,12.7116697 C128.897503,12.1412433 129.290371,11.6673577 129.793604,11.2899987 C130.296836,10.9126397 130.897175,10.6318186 131.594637,10.447527 C132.2921,10.2632354 133.046937,10.1710909 133.859172,10.1710909 C134.706722,10.1710909 135.426245,10.2237449 136.017764,10.3290544 C136.609283,10.4343639 137.178722,10.5747744 137.726097,10.7502902 L137.726097,10.4870178 C137.726097,9.52168081 137.430342,8.78452543 136.838823,8.27552955 C136.247304,7.76653367 135.395354,7.51203955 134.282945,7.51203955 C133.488367,7.51203955 132.782087,7.59102048 132.164082,7.74898472 C131.546077,7.90694896 130.919253,8.11756478 130.283591,8.38083851 L129.40956,5.8270961 C130.18648,5.47606446 130.981046,5.19524336 131.793281,4.98462437 C132.605516,4.77400539 133.58548,4.66869748 134.733203,4.66869748 C136.816763,4.66869748 138.361751,5.18207355 139.368216,6.2088411 C140.374681,7.23560865 140.877906,8.67920461 140.877906,10.5396723 L140.877906,18.7800989 L137.699612,18.7800989 L137.699612,18.7800989 Z M149.100272,19.0960258 C148.058492,19.0960258 147.096185,18.9073491 146.213321,18.5299901 C145.330457,18.1526311 144.566791,17.639255 143.9223,16.9898465 C143.277809,16.3404379 142.774584,15.5769556 142.41261,14.6993765 C142.050636,13.8217973 141.869651,12.8915775 141.869651,11.9086889 L141.869651,11.8560344 C141.869651,10.8731458 142.050636,9.93853806 142.41261,9.05218317 C142.774584,8.16582828 143.277809,7.39357025 143.9223,6.73538593 C144.566791,6.0772016 145.334871,5.55504987 146.226564,5.16891506 C147.118256,4.78278026 148.084978,4.58971575 149.126757,4.58971575 C150.451053,4.58971575 151.550203,4.80910724 152.424238,5.24789679 C153.298273,5.68668634 154.061939,6.26587986 154.715259,6.98549472 L152.728825,9.11800127 C152.234421,8.60900539 151.709125,8.19216157 151.15292,7.86745731 C150.596716,7.54275304 149.912507,7.38040334 149.100272,7.38040334 C148.517582,7.38040334 147.979043,7.49887474 147.484639,7.7358211 C146.990235,7.97276746 146.566466,8.28869119 146.213321,8.68360179 C145.860175,9.07851239 145.582077,9.54801016 145.379018,10.0921092 C145.17596,10.6362082 145.074432,11.2066261 145.074432,11.8033799 L145.074432,11.8560344 C145.074432,12.4703397 145.17596,13.0495333 145.379018,13.5936323 C145.582077,14.1377314 145.869004,14.611617 146.239806,15.0153033 C146.61061,15.4189897 147.052035,15.7393013 147.564096,15.9762477 C148.076157,16.213194 148.641181,16.3316654 149.259186,16.3316654 C150.01845,16.3316654 150.685002,16.1693157 151.258863,15.8446115 C151.832725,15.5199072 152.375678,15.1030634 152.887739,14.5940675 L154.821202,16.4896289 C154.132568,17.2618985 153.346831,17.8893581 152.463967,18.3720266 C151.581103,18.8546951 150.459882,19.0960258 149.100272,19.0960258 L149.100272,19.0960258 L149.100272,19.0960258 Z M158.56747,23.0714392 C157.896493,23.0714392 157.300569,22.9968461 156.779679,22.8476577 C156.258789,22.6984692 155.75115,22.4922412 155.256746,22.2289675 L156.342663,19.8595158 C156.642837,20.01748 156.94742,20.1447271 157.256423,20.2412608 C157.565425,20.3377945 157.887666,20.3860606 158.223154,20.3860606 C158.682243,20.3860606 159.061869,20.271977 159.362043,20.0438065 C159.662217,19.8156359 159.944729,19.3944042 160.209588,18.7800989 L154.382715,4.87931541 L157.799382,4.87931541 L161.77225,15.199594 L165.400803,4.87931541 L168.738012,4.87931541 L163.175997,19.1750075 C162.89348,19.8946224 162.602139,20.5001428 162.301966,20.9915871 C162.001792,21.4830314 161.666309,21.8823239 161.295506,22.1894766 C160.924702,22.4966293 160.518591,22.7204086 160.077159,22.8608213 C159.635727,23.0012339 159.132502,23.0714392 158.56747,23.0714392 L158.56747,23.0714392 L158.56747,23.0714392 Z" id="Democracy-Copy"></path>
            <path d="M180.694875,18.5343779 C181.983857,18.5343779 183.158048,18.2886595 184.217485,17.7972152 C185.276922,17.3057709 186.186258,16.6519843 186.945521,15.8358357 C187.704784,15.0196871 188.287465,14.0719159 188.693583,12.9924936 C189.099701,11.9130713 189.302756,10.7766234 189.302756,9.58311587 L189.302756,9.53046139 C189.302756,8.35450539 189.095286,7.22244533 188.68034,6.13424725 C188.265394,5.04604916 187.678299,4.08950229 186.919035,3.26457793 C186.159772,2.43965358 185.246022,1.7770913 184.177756,1.27687121 C183.109491,0.77665112 181.930885,0.526544828 180.641904,0.526544828 C179.335265,0.526544828 178.156659,0.772263291 177.106051,1.26370759 C176.055443,1.75515188 175.150521,2.40893851 174.391258,3.22508707 C173.631994,4.04123564 173.049313,4.99339468 172.643196,6.08159276 C172.237078,7.16979085 172.034022,8.30185091 172.034022,9.47780691 L172.034022,9.53046139 C172.034022,10.7064174 172.241492,11.8384774 172.656438,12.9266755 C173.071385,14.0148736 173.65848,14.9714205 174.417743,15.7963448 C175.177007,16.6212692 176.090757,17.2838315 177.159022,17.7840516 C178.227288,18.2842717 179.405893,18.5343779 180.694875,18.5343779 L180.694875,18.5343779 L180.694875,18.5343779 Z M180.668389,19.0609228 C179.255807,19.0609228 177.984502,18.8020408 176.854436,18.2842692 C175.72437,17.7664975 174.757648,17.0688326 173.954242,16.1912535 C173.150836,15.3136744 172.53284,14.3044735 172.100237,13.1636207 C171.667633,12.0227679 171.451335,10.8205025 171.451335,9.55678863 L171.451335,9.50413415 C171.451335,8.24042024 171.667633,7.03815491 172.100237,5.89730207 C172.53284,4.75644924 173.150836,3.74724841 173.954242,2.86966931 C174.757648,1.99209021 175.72437,1.29442529 176.854436,0.776653621 C177.984502,0.258881952 179.255807,0 180.668389,0 C182.063315,0 183.330205,0.258881952 184.4691,0.776653621 C185.607995,1.29442529 186.57913,1.99209021 187.382537,2.86966931 C188.185943,3.74724841 188.803938,4.75644924 189.236542,5.89730207 C189.669145,7.03815491 189.885444,8.24042024 189.885444,9.50413415 L189.885444,9.55678863 C189.885444,10.8205025 189.669145,12.0227679 189.236542,13.1636207 C188.803938,14.3044735 188.185943,15.3136744 187.382537,16.1912535 C186.57913,17.0688326 185.607995,17.7664975 184.4691,18.2842692 C183.330205,18.8020408 182.063315,19.0609228 180.668389,19.0609228 L180.668389,19.0609228 L180.668389,19.0609228 Z M198.664011,19.0082683 C197.233771,19.0082683 195.905081,18.7537742 194.6779,18.2447783 C193.450718,17.7357824 192.333913,17.0074027 191.327447,16.0596173 L191.75122,15.6383814 C192.704713,16.5510637 193.764134,17.2531164 194.929514,17.7445607 C196.094895,18.236005 197.357372,18.4817235 198.716982,18.4817235 C199.582189,18.4817235 200.367926,18.3720277 201.074217,18.1526329 C201.780509,17.9332382 202.380847,17.6304779 202.875251,17.2443431 C203.369655,16.8582083 203.749281,16.3974862 204.01414,15.8621629 C204.278999,15.3268397 204.411427,14.752034 204.411427,14.1377286 L204.411427,14.0850742 C204.411427,13.5234235 204.314313,13.0188231 204.120083,12.5712578 C203.925853,12.1236924 203.599198,11.7243999 203.140109,11.3733683 C202.68102,11.0223366 202.05861,10.7108007 201.272861,10.4387512 C200.487112,10.1667017 199.511562,9.90781974 198.346181,9.6620976 C197.198458,9.43392703 196.222908,9.17504508 195.419502,8.88544397 C194.616095,8.59584287 193.962786,8.25797998 193.459553,7.87184518 C192.956321,7.48571038 192.589938,7.04253958 192.360393,6.54231949 C192.130849,6.0420994 192.016078,5.46729371 192.016078,4.81788518 L192.016078,4.76523069 C192.016078,4.11582216 192.166163,3.50591383 192.466336,2.93548742 C192.76651,2.365061 193.185864,1.86484842 193.724411,1.43483466 C194.262958,1.0048209 194.898611,0.666958011 195.631388,0.421235862 C196.364165,0.175513714 197.171973,0.0526544828 198.054837,0.0526544828 C199.27319,0.0526544828 200.416482,0.241331159 201.484747,0.618690173 C202.553012,0.996049187 203.510906,1.50942526 204.358455,2.1588338 L203.987654,2.63272414 C203.157762,2.01841877 202.239597,1.52259401 201.233132,1.145235 C200.226667,0.767875987 199.149589,0.579199311 198.001866,0.579199311 C197.189631,0.579199311 196.452451,0.693282883 195.790303,0.921453449 C195.128155,1.14962402 194.558716,1.45677209 194.081969,1.8429069 C193.605223,2.2290417 193.23884,2.6722125 192.982809,3.17243259 C192.726778,3.67265268 192.598765,4.19480441 192.598765,4.73890345 L192.598765,4.79155794 C192.598765,5.35320856 192.695879,5.85342114 192.890109,6.2922107 C193.084339,6.73100025 193.415408,7.12151709 193.883326,7.46377294 C194.351244,7.80602879 194.964825,8.11317687 195.724088,8.38522639 C196.483351,8.65727591 197.43683,8.9073822 198.584553,9.13555277 C199.785248,9.38127492 200.796113,9.65770819 201.617176,9.96486087 C202.43824,10.2720136 203.100378,10.6230399 203.60361,11.0179505 C204.106843,11.4128611 204.464397,11.8604198 204.676285,12.3606398 C204.888172,12.8608599 204.994114,13.42689 204.994114,14.0587469 L204.994114,14.1114014 C204.994114,14.7959131 204.848444,15.4365362 204.557098,16.03329 C204.265753,16.6300438 203.8464,17.1478077 203.299024,17.5865973 C202.751648,18.0253868 202.085096,18.3720254 201.299347,18.6265233 C200.513598,18.8810212 199.635161,19.0082683 198.664011,19.0082683 L198.664011,19.0082683 L198.664011,19.0082683 Z" id="OS-Copy"></path>
            <path d="M36.5062446,24.5615611 L41.7958979,24.5615611 L41.7958979,25.6918773 L37.7550495,25.6918773 L37.7550495,27.6194702 L41.3390181,27.6194702 L41.3390181,28.7497864 L37.7550495,28.7497864 L37.7550495,31.6260375 L36.5062446,31.6260375 L36.5062446,24.5615611 L36.5062446,24.5615611 Z M48.0888408,28.063523 C48.53557,28.063523 48.8909175,27.9575569 49.1548938,27.7456215 C49.4188702,27.5336862 49.5508564,27.2460639 49.5508564,26.8827462 L49.5508564,26.862562 C49.5508564,26.4790599 49.4222546,26.1880737 49.1650467,25.9895945 C48.9078388,25.7911154 48.5457229,25.6918773 48.078688,25.6918773 L46.2613215,25.6918773 L46.2613215,28.063523 L48.0888408,28.063523 L48.0888408,28.063523 Z M45.0125166,24.5615611 L48.1802168,24.5615611 C48.626946,24.5615611 49.0229045,24.6237951 49.3681044,24.7482651 C49.7133043,24.8727351 50.0009664,25.0459812 50.2310997,25.2680087 C50.4206209,25.4631238 50.5661445,25.688512 50.6676738,25.94418 C50.769203,26.1998481 50.819967,26.4824243 50.819967,26.7919172 L50.819967,26.8121014 C50.819967,27.10141 50.7776639,27.3621202 50.693056,27.5942399 C50.608448,27.8263595 50.4916911,28.0315637 50.3427814,28.2098586 C50.1938717,28.3881534 50.016198,28.5395335 49.8097549,28.6640035 C49.6033119,28.7884734 49.3748742,28.8843475 49.1244352,28.9516286 L51.0433305,31.6260375 L49.5711621,31.6260375 L47.8248658,29.1635629 L47.8045601,29.1635629 L46.2613215,29.1635629 L46.2613215,31.6260375 L45.0125166,31.6260375 L45.0125166,24.5615611 L45.0125166,24.5615611 Z M58.5038553,28.8204312 L57.2753561,25.9946406 L56.0570099,28.8204312 L58.5038553,28.8204312 L58.5038553,28.8204312 Z M56.7169474,24.5111005 L57.8743764,24.5111005 L61.0014651,31.6260375 L59.68159,31.6260375 L58.9607351,29.9204711 L55.60013,29.9204711 L54.8691223,31.6260375 L53.5898587,31.6260375 L56.7169474,24.5111005 L56.7169474,24.5111005 Z M64.0657904,24.5615611 L65.2232194,24.5615611 L69.0305514,29.4461419 L69.0305514,24.5615611 L70.2590505,24.5615611 L70.2590505,31.6260375 L69.2133033,31.6260375 L65.2942896,26.6001671 L65.2942896,31.6260375 L64.0657904,31.6260375 L64.0657904,24.5615611 L64.0657904,24.5615611 Z M77.2322368,31.7471428 C76.7110525,31.7471428 76.2304878,31.6529508 75.790527,31.4645638 C75.3505663,31.2761768 74.9698371,31.0188306 74.6483274,30.6925174 C74.3268178,30.3662043 74.0746903,29.981026 73.8919375,29.5369709 C73.7091846,29.0929159 73.6178096,28.6185915 73.6178096,28.1139835 L73.6178096,28.0937993 C73.6178096,27.5891913 73.7074926,27.116549 73.886861,26.675858 C74.0662294,26.235167 74.3183569,25.8483067 74.643251,25.5152654 C74.9681451,25.1822241 75.3539508,24.9198319 75.8006799,24.7280809 C76.2474091,24.5363298 76.7415112,24.4404558 77.2830012,24.4404558 C77.6078953,24.4404558 77.9040179,24.4673678 78.1713787,24.5211926 C78.4387395,24.5750175 78.6840985,24.6507076 78.9074629,24.7482651 C79.1308277,24.8458226 79.3372676,24.9618807 79.5267889,25.0964429 C79.7163106,25.231005 79.8956763,25.3790211 80.0648918,25.5404957 L79.2628139,26.4588776 C78.9785318,26.1964815 78.6773323,25.9845493 78.3592071,25.8230747 C78.0410818,25.6616002 77.6789659,25.5808641 77.2728483,25.5808641 C76.9344173,25.5808641 76.621373,25.6464622 76.3337064,25.7776602 C76.0460399,25.9088583 75.7972968,26.0871505 75.5874693,26.312542 C75.3776419,26.5379336 75.2151975,26.8020078 75.1001308,27.1047726 C74.9850642,27.4075374 74.9275318,27.7304817 74.9275318,28.0736151 L74.9275318,28.0937993 C74.9275318,28.4369327 74.9850642,28.761559 75.1001308,29.0676878 C75.2151975,29.3738167 75.3776419,29.6412549 75.5874693,29.8700105 C75.7972968,30.0987661 76.0460399,30.2787403 76.3337064,30.4099384 C76.621373,30.5411364 76.9344173,30.6067345 77.2728483,30.6067345 C77.7060402,30.6067345 78.0783089,30.5243164 78.3896657,30.3594778 C78.7010225,30.1946392 79.0089904,29.970933 79.3135783,29.6883526 L80.1156562,30.4957213 C79.9329034,30.6908364 79.7416928,30.8640825 79.5420182,31.0154649 C79.3423436,31.1668473 79.1274432,31.2980434 78.89731,31.4090572 C78.6671767,31.5200709 78.4150493,31.604171 78.14092,31.6613599 C77.8667908,31.7185488 77.5638993,31.7471428 77.2322368,31.7471428 L77.2322368,31.7471428 L77.2322368,31.7471428 Z M83.2713576,24.5615611 L88.5407051,24.5615611 L88.5407051,25.6716931 L84.5201625,25.6716931 L84.5201625,27.508457 L88.0838253,27.508457 L88.0838253,28.618589 L84.5201625,28.618589 L84.5201625,30.5159055 L88.5914695,30.5159055 L88.5914695,31.6260375 L83.2713576,31.6260375 L83.2713576,24.5615611 L83.2713576,24.5615611 Z" id="FRANCE-Copy"></path>
        </g>
    </g>
</svg>