<?xml version="1.0" standalone="no"?>
<!DOCTYPE svg PUBLIC "-//W3C//DTD SVG 20010904//EN"
 "http://www.w3.org/TR/2001/REC-SVG-20010904/DTD/svg10.dtd">
<svg version="1.0" xmlns="http://www.w3.org/2000/svg"
 width="396.000000pt" height="396.000000pt" viewBox="0 0 396.000000 396.000000"
 preserveAspectRatio="xMidYMid meet">
<metadata>
Created by potrace 1.11, written by Peter Selinger 2001-2013
</metadata>
<g transform="translate(0.000000,396.000000) scale(0.100000,-0.100000)"
fill="#000000" stroke="none">
<path d="M875 3948 c-387 -51 -710 -328 -820 -703 -32 -109 -39 -162 -39 -280
1 -128 10 -184 52 -321 21 -68 83 -184 139 -260 135 -181 316 -305 536 -367
77 -22 87 -23 88 -8 0 9 1 316 1 683 1 601 3 667 17 670 9 2 249 3 534 3 284
-1 517 1 517 5 0 18 -69 134 -115 195 -44 58 -123 138 -187 191 -38 30 -173
105 -240 132 -140 56 -332 80 -483 60z"/>
<path d="M2907 3954 c-1 -1 -26 -5 -56 -8 -62 -7 -137 -24 -166 -36 -11 -5
-31 -12 -45 -16 -45 -12 -184 -85 -245 -129 -86 -62 -150 -127 -213 -214 -57
-80 -118 -190 -105 -192 5 0 17 -2 28 -4 27 -5 104 -16 110 -16 2 0 42 -11 87
-23 379 -105 658 -307 838 -606 74 -123 154 -340 174 -474 4 -21 8 -48 11 -60
2 -12 7 -43 10 -71 3 -27 8 -51 10 -53 2 -2 43 16 90 42 268 142 438 375 501
686 17 87 21 210 22 665 l1 511 -525 0 c-288 0 -526 -1 -527 -2z"/>
<path d="M1319 2878 c-1 -42 -1 -807 0 -831 1 -23 19 -18 121 32 189 94 349
256 439 444 57 119 79 192 98 322 7 54 13 57 14 7 1 -23 2 -45 3 -49 1 -5 6
-24 10 -43 68 -313 273 -568 562 -700 60 -28 112 -44 237 -74 l28 -7 -6 78
c-18 213 -109 424 -249 571 -115 121 -326 233 -486 258 -19 3 -54 9 -78 14
-24 4 -189 8 -368 9 l-324 2 -1 -33z"/>
<path d="M725 1941 c-364 -108 -621 -392 -700 -776 -12 -55 -14 -259 -3 -325
12 -75 60 -224 94 -291 91 -182 255 -344 441 -438 66 -33 188 -76 244 -85 19
-3 45 -8 59 -11 49 -11 246 -6 320 9 282 55 509 214 664 466 25 41 46 79 46
85 0 7 -167 10 -530 9 l-530 -1 0 688 0 689 -22 -1 c-13 0 -50 -8 -83 -18z"/>
<path d="M2780 1953 c-51 -8 -185 -55 -244 -85 -185 -93 -336 -239 -436 -422
-45 -82 -89 -216 -104 -316 l-12 -85 -8 55 c-19 146 -76 304 -155 425 -44 68
-169 201 -241 258 -31 24 -245 137 -259 137 -4 0 -6 -792 -2 -887 1 -18 641
-19 659 -1 9 9 12 9 12 0 0 -6 6 -10 13 -7 6 2 31 6 54 9 53 7 86 14 153 36
291 95 501 313 581 606 26 97 28 105 35 202 7 88 10 84 -46 75z"/>
<path d="M3339 1858 c0 -24 -2 -52 -4 -63 -2 -11 -6 -36 -9 -55 -13 -78 -17
-98 -37 -165 -72 -250 -218 -476 -417 -648 -172 -148 -450 -275 -692 -316 -36
-6 -75 -14 -88 -16 l-22 -5 24 -48 c93 -181 264 -347 451 -437 143 -69 272
-97 440 -97 298 1 590 148 776 391 81 106 155 274 184 416 14 65 13 262 0 340
-45 257 -182 479 -390 633 -59 43 -184 112 -205 112 -5 0 -10 -19 -11 -42z"/>
</g>
</svg>
