<?xml version="1.0" standalone="no"?>
<!DOCTYPE svg PUBLIC "-//W3C//DTD SVG 20010904//EN"
 "http://www.w3.org/TR/2001/REC-SVG-20010904/DTD/svg10.dtd">
<svg version="1.0" xmlns="http://www.w3.org/2000/svg"
 width="791.000000pt" height="791.000000pt" viewBox="0 0 791.000000 791.000000"
 preserveAspectRatio="xMidYMid meet">
<metadata>
Created by potrace 1.11, written by Peter Selinger 2001-2013
</metadata>
<g transform="translate(0.000000,791.000000) scale(0.100000,-0.100000)"
fill="#000000" stroke="none">
<path d="M1988 7906 c-1 -2 -57 -6 -123 -9 -66 -4 -129 -8 -140 -11 -11 -2
-40 -7 -65 -10 -98 -13 -302 -67 -365 -96 -11 -5 -45 -19 -75 -30 -83 -32
-248 -121 -350 -190 -221 -149 -422 -359 -569 -594 -43 -69 -141 -257 -141
-271 0 -4 -6 -21 -14 -38 -29 -64 -84 -245 -101 -332 -32 -171 -47 -431 -31
-575 11 -106 18 -165 22 -171 2 -4 6 -24 10 -45 12 -80 76 -280 123 -390 141
-327 383 -624 679 -833 39 -28 74 -51 75 -51 2 0 41 -22 86 -49 44 -27 131
-70 191 -96 141 -59 235 -88 426 -130 l20 -4 0 1352 c-1 743 0 1359 2 1368 3
15 99 16 1060 17 581 0 1063 1 1070 1 8 1 -6 38 -39 102 -203 395 -519 702
-914 890 -167 79 -310 126 -485 158 -103 19 -115 21 -220 27 -58 3 -110 7
-117 9 -6 2 -13 2 -15 1z"/>
<path d="M5887 7904 c-1 -1 -40 -4 -87 -7 -306 -22 -656 -136 -917 -299 -229
-143 -432 -341 -587 -572 -72 -107 -180 -313 -169 -319 5 -2 24 -4 43 -5 70
-4 278 -44 410 -79 369 -97 695 -248 985 -455 55 -40 113 -83 129 -97 225
-194 408 -401 542 -619 74 -119 183 -344 232 -477 56 -153 118 -375 137 -490
3 -16 7 -40 9 -52 3 -11 8 -43 12 -70 3 -26 8 -57 10 -68 2 -11 7 -47 10 -80
4 -33 8 -69 9 -80 1 -11 3 -26 4 -32 3 -28 214 74 376 182 469 311 765 810
841 1415 4 30 9 71 11 90 3 19 6 502 8 1073 l3 1037 -21 1 c-43 1 -1989 4
-1990 3z"/>
<path d="M2616 5801 c-5 -11 -1 -1749 4 -1754 7 -7 150 52 242 98 188 96 347
212 503 369 120 121 166 176 250 301 179 269 296 596 321 898 l7 87 -54 1
c-181 5 -1270 5 -1273 0z"/>
<path d="M3954 5734 c7 -79 13 -118 27 -190 5 -28 12 -63 15 -77 20 -116 109
-353 182 -487 31 -59 128 -213 152 -243 215 -273 437 -459 709 -596 143 -73
358 -144 524 -175 l78 -14 -5 82 c-26 410 -146 755 -367 1054 -122 164 -265
296 -454 417 -76 49 -128 76 -280 146 -124 56 -328 111 -505 134 -25 3 -54 9
-64 12 -18 5 -18 1 -12 -63z"/>
<path d="M1490 3889 c-427 -109 -802 -354 -1078 -706 -98 -125 -210 -321 -271
-476 -31 -78 -88 -259 -96 -307 -2 -14 -12 -65 -21 -115 -21 -116 -26 -426 -8
-550 19 -137 24 -163 49 -260 202 -777 872 -1362 1673 -1458 108 -13 404 -15
467 -4 17 3 50 9 75 12 25 4 65 11 90 17 25 5 54 12 66 14 12 2 64 17 116 33
442 136 814 415 1073 806 51 77 118 196 135 240 l8 21 -1052 -1 c-578 -1
-1057 1 -1064 3 -9 3 -12 245 -12 1171 0 641 0 1262 0 1378 l0 213 -22 -2
c-13 -1 -70 -14 -128 -29z"/>
<path d="M5515 3889 c-387 -83 -739 -278 -1010 -560 -49 -52 -101 -109 -115
-127 -14 -18 -33 -43 -44 -55 -73 -86 -201 -315 -256 -457 -18 -47 -37 -94
-41 -105 -13 -31 -67 -244 -74 -295 -3 -25 -8 -56 -10 -70 -2 -14 -7 -56 -10
-95 -8 -84 -15 -97 -16 -29 0 63 -7 128 -19 184 -5 25 -12 63 -16 85 -25 138
-100 349 -176 495 -197 378 -500 677 -875 865 -105 52 -208 95 -228 95 -11 0
-15 -1774 -4 -1785 8 -8 1179 -8 1264 -1 33 3 89 8 125 12 209 19 454 92 668
199 520 262 855 747 947 1375 2 19 8 92 11 163 8 148 20 137 -121 106z"/>
<path d="M6662 3758 c-2 -50 -12 -174 -17 -198 -2 -9 -6 -41 -10 -71 -4 -30
-10 -72 -15 -94 -5 -22 -12 -55 -15 -74 -3 -18 -19 -83 -36 -145 -135 -499
-409 -942 -794 -1285 -163 -144 -403 -304 -610 -406 -118 -58 -338 -152 -375
-160 -8 -2 -35 -10 -60 -18 -113 -38 -293 -82 -420 -103 -25 -4 -47 -8 -50 -9
-3 -1 -35 -5 -72 -9 -38 -4 -68 -10 -68 -12 0 -3 24 -52 54 -109 199 -380 517
-688 902 -871 183 -87 398 -152 557 -170 28 -3 55 -8 60 -11 4 -2 83 -6 175
-8 197 -4 369 13 517 52 33 8 65 16 70 17 88 20 269 92 384 152 84 45 255 154
298 190 11 11 41 35 64 54 70 57 207 199 274 285 210 269 341 565 400 910 14
82 20 186 19 340 -4 685 -372 1319 -970 1671 -93 54 -234 124 -252 124 -5 0
-9 -19 -10 -42z"/>
</g>
</svg>
