<?xml version="1.0" encoding="iso-8859-1"?>
<!-- Generator: Adobe Illustrator 18.1.1, SVG Export Plug-In . SVG Version: 6.00 Build 0)  -->
<svg version="1.1" id="Capa_1" xmlns="http://www.w3.org/2000/svg" xmlns:xlink="http://www.w3.org/1999/xlink" x="0px" y="0px"
	 viewBox="0 0 29.646 29.646" style="enable-background:new 0 0 29.646 29.646;" xml:space="preserve">
<g>
	<path d="M7.075,16.808v5.09c0,4.28,3.469,7.748,7.748,7.748s7.748-3.468,7.748-7.748v-4.977
		C20.593,17.916,15.184,19.833,7.075,16.808z"/>
	<path d="M15.82,5.98c-0.006-1.3,1.744-1.387,1.744-1.387C22.846,4.593,22.156,0,22.156,0h-1.567c0,3.793-3.386,3.385-3.386,3.385
		c-2.854,0-3.456,1.581-3.545,2.621C9.932,6.57,7.075,9.777,7.075,13.657v2.162c2.494,1.014,9.254,3.156,15.496-0.003v-2.159
		C22.571,9.717,19.627,6.471,15.82,5.98z M16.163,13.348c0,0.742-0.601,1.343-1.34,1.343c-0.74,0-1.341-0.601-1.341-1.343V9.679
		c0-0.739,0.601-1.34,1.341-1.34s1.34,0.601,1.34,1.34V13.348z"/>
	<g>
	</g>
	<g>
	</g>
	<g>
	</g>
	<g>
	</g>
	<g>
	</g>
	<g>
	</g>
	<g>
	</g>
	<g>
	</g>
	<g>
	</g>
	<g>
	</g>
	<g>
	</g>
	<g>
	</g>
	<g>
	</g>
	<g>
	</g>
	<g>
	</g>
</g>
<g>
</g>
<g>
</g>
<g>
</g>
<g>
</g>
<g>
</g>
<g>
</g>
<g>
</g>
<g>
</g>
<g>
</g>
<g>
</g>
<g>
</g>
<g>
</g>
<g>
</g>
<g>
</g>
<g>
</g>
</svg>
