<?xml version="1.0" encoding="iso-8859-1"?>
<!-- Generator: Adobe Illustrator 16.0.0, SVG Export Plug-In . SVG Version: 6.00 Build 0)  -->
<!DOCTYPE svg PUBLIC "-//W3C//DTD SVG 1.1//EN" "http://www.w3.org/Graphics/SVG/1.1/DTD/svg11.dtd">
<svg version="1.1" id="Capa_1" xmlns="http://www.w3.org/2000/svg" xmlns:xlink="http://www.w3.org/1999/xlink" x="0px" y="0px"
	 width="556.645px" height="556.645px" viewBox="0 0 556.645 556.645" style="enable-background:new 0 0 556.645 556.645;"
	 xml:space="preserve">
<g>
	<g>
		<path d="M545.935,385.37h-74.927v-0.055h-85.644v0.055H198.563c-6.763,0-15.612-3.372-19.768-7.527s-7.528-13.005-7.528-19.768
			v-176.06h-0.049V75.931h0.055V10.704c0-3.109-1.004-5.686-3.011-7.699C166.256,1.004,163.692,0,160.564,0H96.341
			c-3.127,0-5.686,1.004-7.699,3.005c-2.007,2.014-3.011,4.584-3.011,7.699v74.927H10.704c-3.127,0-5.686,1.003-7.693,3.017
			C1.004,90.649,0,93.22,0,96.347v64.224c0,3.121,1.004,5.685,3.011,7.699c2.007,2.001,4.565,3.005,7.693,3.005h74.933v289.023
			c0,3.133,1.004,5.697,3.011,7.699c2.007,2.013,4.571,3.017,7.699,3.017H385.37v74.927c0,3.109,1.004,5.686,3.012,7.699
			c2.007,2.002,4.565,3.005,7.692,3.005h64.229c3.121,0,5.686-1.003,7.692-3.005c2.008-2.014,3.012-4.584,3.012-7.699v-74.927
			h74.933c3.121,0,5.686-1.004,7.693-3.017c2.007-2.002,3.011-4.56,3.011-7.699v-64.229c0-3.109-1.004-5.686-3.011-7.699
			C551.626,386.374,549.056,385.37,545.935,385.37z"/>
		<path d="M377.837,178.802c4.155,4.155,7.527,13.005,7.527,19.768v168.385h85.637V112.926c0-6.762-3.372-15.612-7.527-19.768
			c-4.155-4.155-13.005-7.527-19.768-7.527H189.579v85.643h168.496C364.832,171.274,373.682,174.646,377.837,178.802z"/>
	</g>
</g>
<g>
</g>
<g>
</g>
<g>
</g>
<g>
</g>
<g>
</g>
<g>
</g>
<g>
</g>
<g>
</g>
<g>
</g>
<g>
</g>
<g>
</g>
<g>
</g>
<g>
</g>
<g>
</g>
<g>
</g>
</svg>
