<?xml version="1.0" encoding="iso-8859-1"?>
<!-- Generator: Adobe Illustrator 18.1.1, SVG Export Plug-In . SVG Version: 6.00 Build 0)  -->
<svg version="1.1" id="Capa_1" xmlns="http://www.w3.org/2000/svg" xmlns:xlink="http://www.w3.org/1999/xlink" x="0px" y="0px"
	 viewBox="0 0 118.877 118.877" style="enable-background:new 0 0 118.877 118.877;" xml:space="preserve">
<g>
	<g>
		<path style="fill:#010002;" d="M52.736,118.44c0,0,3.5-3.064-2.627-8.316c0,0-13.383-6.194-22.885-21.449
			c0,0-7.803-7.991-7.533-10.912c-1.753-12.714-3.833-12.371-3.273-14.222c-4.963-6.095,0.787-21.521,9.797-8.521
			c0.191,0,5.088,10.711,5.219,10.566c0,0,7.797,8.982,11.207,11.003c10.945-2.716,3.758-26.205,4.527-28.053
			c0,0-2.031-15.638-4.365-34.304c1.5-16.5,12.428-7.704,13.402-3.168c1.197,0.191,5.998,29.488,7.406,29.906
			c0,0,10.381-8.753,16.07,3.939c0,0,11.379-6.565,15.756,6.128c0,0,15.318,1.312,14.006,15.318c0,0,3.209,26.261-6.42,44.643
			l-2.334,7.879L52.736,118.44z"/>
		<g>
			<path style="fill:#010002;" d="M40.08,27.29l-1.281-6.304c0,0-0.053-0.464-0.496-0.381c-0.613,0.116-6.322,1.292-6.322,1.292
				s-0.777,0.146-0.166,0.565c0.615,0.419,1.598,1.087,1.598,1.087s-0.184,0.267-0.459,0.674c-0.861,1.26-2.533,3.712-3.174,4.651
				c0,0-0.154,0.216,0.129,0.411c0.285,0.194,3.52,2.4,3.92,2.67c0.396,0.272,0.506-0.036,0.506-0.036
				c0.658-0.966,2.275-3.338,3.166-4.642c0.309-0.457,0.51-0.753,0.51-0.753s1.225,0.834,1.73,1.178
				C40.244,28.047,40.08,27.29,40.08,27.29z"/>
			<path style="fill:#010002;" d="M30.924,36.213c-0.398-0.271-3.635-2.477-3.92-2.672c-0.281-0.194-0.428,0.031-0.428,0.031
				c-0.641,0.939-2.312,3.392-3.17,4.651c-0.279,0.408-0.459,0.676-0.459,0.676s-0.98-0.669-1.596-1.089
				c-0.615-0.419-0.465,0.36-0.465,0.36s0.99,5.745,1.105,6.357c0.086,0.442,0.537,0.32,0.537,0.32l6.336-1.109
				c0,0,0.764-0.124,0.26-0.467c-0.508-0.344-1.729-1.178-1.729-1.178s0.203-0.295,0.512-0.751c0.891-1.304,2.508-3.676,3.166-4.642
				C31.074,36.699,31.32,36.485,30.924,36.213z"/>
		</g>
		<path style="fill:#010002;" d="M48.729,0C42.59,0,37.613,4.976,37.613,11.115S42.59,22.23,48.729,22.23
			s11.115-4.977,11.115-11.115S54.867,0,48.729,0z M48.729,19.928c-4.867,0-8.814-3.946-8.814-8.813s3.947-8.813,8.814-8.813
			s8.814,3.946,8.814,8.813C57.543,15.982,53.596,19.928,48.729,19.928z"/>
		<path style="fill:#010002;" d="M20.035,46.358c-6.138,0-11.115,4.976-11.115,11.115s4.977,11.115,11.115,11.115
			S31.15,63.611,31.15,57.473S26.174,46.358,20.035,46.358z M20.035,66.286c-4.867,0-8.814-3.946-8.814-8.813
			s3.947-8.813,8.814-8.813s8.814,3.946,8.814,8.813C28.85,62.34,24.902,66.286,20.035,66.286z"/>
	</g>
</g>
<g>
</g>
<g>
</g>
<g>
</g>
<g>
</g>
<g>
</g>
<g>
</g>
<g>
</g>
<g>
</g>
<g>
</g>
<g>
</g>
<g>
</g>
<g>
</g>
<g>
</g>
<g>
</g>
<g>
</g>
</svg>
