<?xml version="1.0" encoding="iso-8859-1"?>
<!-- Generator: Adobe Illustrator 18.1.1, SVG Export Plug-In . SVG Version: 6.00 Build 0)  -->
<svg version="1.1" id="Capa_1" xmlns="http://www.w3.org/2000/svg" xmlns:xlink="http://www.w3.org/1999/xlink" x="0px" y="0px"
	 viewBox="0 0 96.921 96.921" style="enable-background:new 0 0 96.921 96.921;" xml:space="preserve">
<g>
	<g>
		<path style="fill:#010002;" d="M80.088,80.532c-3.103-5.854-2.441-4.289-3.003-7.182c-0.508-2.605-0.251-5.623-0.394-8.745
			c-0.212-4.718-0.653-9.679-0.653-13.837c0-3.654-1.524-4.817-2.35-7.18c-1.197-3.438-2.16-6.584-3.784-8.224
			c-1.972-1.99-4.132-0.727-4.132-0.727c-1.424-3.683-1.797-4.62-3.295-6.44c-1.438-1.751-3.612-1.515-3.612-1.515
			s-1.063-5.287-3.496-7.956c-1.297-1.424-3.974-1.408-4.979-0.92c-0.729,0.354-1.704,1.489-2.726,2.234
			c-1.965,1.436-4.335,4.124-4.335,4.124s-0.402-1.226-1.521-3.414c-0.757-1.479-2.055-3.326-3.183-5.204
			c1.274-1.633,2.04-3.681,2.04-5.913C40.665,4.312,36.352,0,31.033,0c-5.32,0-9.631,4.312-9.631,9.633
			c0,4.741,3.428,8.673,7.94,9.474c0.162,0.564,0.329,1.137,0.498,1.717c0.675,2.314,1.805,5.345,2.74,7.75
			c1.251,3.212,2.303,5.835,2.902,9.211c0.438,2.475,0.18,5.306,0.073,7.671c-0.091,2.01-0.238,3.945-0.471,5.533
			c-0.318,2.172-1.005,3.693-1.373,4.67c-0.274,0.729-0.227,1.342-0.227,1.342s-0.505-0.01-1.106,0.188
			c-0.602,0.198-0.981,0.703-0.981,0.703L30.4,57.221c0,0,0.187-0.364,0-1.01c-0.204-0.707-0.56-1.702-1.064-3.032
			c-0.206-0.544-0.401-1.624-0.562-2.137c-0.423-1.352-0.981-1.854-0.981-1.854s0.578-1.859-0.197-3.871
			c-0.813-2.108-2.6-4.943-4.586-6.822c-1.637-1.55-2.971-1.955-4.386-1.74c-1.761,0.267-2.435,2.308-2.106,4.456
			c0.199,1.299,0.777,3.046,0.913,3.945c0.327,2.145-0.856,4.68-0.812,6.16c0.057,1.915,1.054,2.978,1.969,7.022
			c0.326,1.444,1.27,3.026,1.702,4.682c0.64,2.447,1.033,4.781,1.318,5.37c1.508,3.123,7.494,7.043,13.054,12.143
			c3.132,2.871,6.838,2.883,9.396,5.48c1.569,1.589,2.433,4.249,4.049,6.657c6.7,9.979,26.329,0.229,31.487-7.168
			C80.82,83.749,80.569,81.444,80.088,80.532z M23.385,9.636c0-4.226,3.424-7.653,7.65-7.653s7.651,3.427,7.651,7.653
			c0,1.463-0.418,2.825-1.13,3.987c-2.174-4.257-3.577-8.838-7.538-7.658C28.893,6.3,27.751,7.431,27.57,9.287
			c-0.19,1.955,0.361,4.627,1.171,7.649C25.638,15.962,23.385,13.062,23.385,9.636z"/>
	</g>
</g>
<g>
</g>
<g>
</g>
<g>
</g>
<g>
</g>
<g>
</g>
<g>
</g>
<g>
</g>
<g>
</g>
<g>
</g>
<g>
</g>
<g>
</g>
<g>
</g>
<g>
</g>
<g>
</g>
<g>
</g>
</svg>
