<?xml version="1.0" encoding="iso-8859-1"?>
<!-- Generator: Adobe Illustrator 18.1.1, SVG Export Plug-In . SVG Version: 6.00 Build 0)  -->
<svg version="1.1" id="Capa_1" xmlns="http://www.w3.org/2000/svg" xmlns:xlink="http://www.w3.org/1999/xlink" x="0px" y="0px"
	 viewBox="0 0 99.411 99.411" style="enable-background:new 0 0 99.411 99.411;" xml:space="preserve">
<g>
	<g>
		<path style="fill:#010002;" d="M90.666,78.679c-7.874-9.822-6.416-33.973-10.512-40.772c-1.213-2.015-4.5-4.758-6.457-7.5
			c-5.459-7.645-10.25-15.771-14.18-14.333c-2.211,0.809-7.714,3.877-7.714,3.877s-1.783-1.442-3.863-1.279
			c-1.418,0.111-3.384,1.38-5.273,1.685c-2.711,0.437-5.687,0.926-8.417,1.515c0.248-1.974,0.747-5.373,1.619-9.132
			C37.382,6.218,39.509,0,39.509,0s-4.624,5.903-9.1,11.83c-3.681,4.874-5.46,8.189-5.46,8.189l-6.37-1.82l6.37,16.379l7.261-3.844
			c3.194-0.001,6.361-0.589,6.361-0.589s4.654,0.201,4.633,0.248l0.392,2.702c0,0-0.846,3.483-0.116,5.534
			c0.818,2.305,1.861,2.475,3.349,2.615c1.887,0.178,4.443-1.826,4.443-1.826s0.638,0.731,0.711,1.704
			c0.104,1.374-0.351,3.164-0.405,3.491c-1.259,7.406-6.009,8.425-6.009,8.425s-3.429-0.772-5.519-3.479
			c-2.891-3.743-3.81-6.303-10.273-10.476c-0.877-0.566-2.042-1.074-3.299-1.353l-1.472-3.153l-17.344,8.19l8.189,1.82
			c0,0-1.094,7.973-1.554,13.213c-0.689,7.836-0.582,17.392-0.582,17.392s2.403-9.233,5.6-16.246
			c1.552-3.404,3.933-7.019,5.355-9.058c0.928,1.379,1.844,2.899,2.627,3.961c1.668,2.261,3.64,3.938,5.567,6.527
			c1.312,1.764,2.242,4.949,3.727,6.835c4.18,5.306,7.124,10.39,10.572,14.994c3.162,4.222,7.266,6.21,10.325,8.64
			c3.431,2.727,5.877,5.461,6.447,6.422c2.855,4.791,13.791,0.785,20.346-4.508C87.978,89.776,94.285,83.191,90.666,78.679z
			 M28.577,31.84c-3.015,0-5.46-2.445-5.46-5.46c0-3.016,2.445-5.46,5.46-5.46c1.41,0,2.691,0.539,3.66,1.417
			c-3.999,1.002-7.078,2.282-7.274,4.036c-0.222,1.989,1.482,3.716,4.473,4.177c0.767,0.119,1.595,0.17,2.43,0.182
			C30.951,31.424,29.814,31.84,28.577,31.84z M17.877,45.359c-1.751-2.454-1.181-5.864,1.273-7.616
			c1.839-1.312,4.213-1.321,6.026-0.211c-1.83-0.144-3.712,0.288-5.106,1.795c-1.926,2.085-0.677,5.374,2.259,7.708
			c0.193,0.153,0.391,0.343,0.591,0.555C21.02,47.798,19.067,47.026,17.877,45.359z"/>
	</g>
</g>
<g>
</g>
<g>
</g>
<g>
</g>
<g>
</g>
<g>
</g>
<g>
</g>
<g>
</g>
<g>
</g>
<g>
</g>
<g>
</g>
<g>
</g>
<g>
</g>
<g>
</g>
<g>
</g>
<g>
</g>
</svg>
