<?xml version="1.0" encoding="iso-8859-1"?>
<!-- Generator: Adobe Illustrator 18.1.1, SVG Export Plug-In . SVG Version: 6.00 Build 0)  -->
<svg version="1.1" id="Capa_1" xmlns="http://www.w3.org/2000/svg" xmlns:xlink="http://www.w3.org/1999/xlink" x="0px" y="0px"
	 viewBox="0 0 98.952 98.952" style="enable-background:new 0 0 98.952 98.952;" xml:space="preserve">
<g>
	<g>
		<path style="fill:#010002;" d="M78.858,54.44c-0.604-2.011-1.787-2.703-2.079-2.849c0.024-0.088,0.044-0.188,0.06-0.319
			c0.022-0.19,0.052-0.392,0.081-0.591c0.098-0.448,0.211-1.039,0.31-1.698c0.007-0.034,0.012-0.055,0.012-0.055
			s-0.004,0.009-0.005,0.011c0.236-1.62,0.367-3.649-0.131-5.07c-0.935-2.664-3.688-2.854-3.805-2.86
			c0.117-0.625,0.129-1.075,0.105-1.354c0.056-1.04,0.076-2.593-0.116-4.368c-0.182-1.663-2.414-2.945-4.77-3.814
			c-4.195-1.054-7.629,1.907-7.629,1.907s4.086-5.976,5.771-8.997l0.091-0.079l-0.05,0.068l5.905-5.149l8.208-7.123L66.614,0
			L65.66,6.676c-0.041,0.016-14.08-0.304-24.617,2.192C28.519,11.835,18.08,15.814,18.136,16.1
			c0.036,0.186,12.081-2.566,26.459-2.323c6.583,0.111,12.729,1.244,16.79,2.196l-0.071,0.081c0,0,0.169,0.155,0.389-0.006
			c0.007,0.002,0.016,0.003,0.022,0.005c-0.824,1.039-1.605,2.072-2.26,3c-2.217,3.145-10.294,13.529-12.083,15.241
			c-2.513,2.407-3.028,4.028-5.183,8.042c-1.781,3.316-3.701,5.793-4.877,7.346c-0.632,0.833-1.164,1.88-1.164,1.88
			s-0.564-0.783-1.018-1.016c-0.527-0.271-1.907,0-1.907,0c0.154-0.752,0.755-0.322,1.232-1.938c0.461-1.567-0.384-2.172-0.278-2.83
			c-0.012,0.123,1.613-0.355,2.815-2.352c0.927-1.54,2.154-2.973,2.404-4.406c0.231-1.333,0.227-2.641,0.101-3.287
			c-0.439-2.247-1.447-3.142-2.699-3.085c-2.193,0.1-4.116,3.89-4.42,3.991c-0.303,0.101-1.081,0.771-1.081,0.771
			s-2.326,0.369-5.026,2.482c-0.846,0.662-1.626,4.231-2.504,7.47c-1.055,3.89-2.961,7.422-2.602,9.935
			c0.227,1.586,2.087,9.106,4.481,14.493c2.799,6.3,6.148,10.576,7.083,12.358c1.734,3.305,2.141,7.563,3.355,10.268
			c3.614,8.047,31.991,3.199,32.426,1.907c0.436-1.295,0.983-1.207,0.503-1.878c-0.35-0.486,0.138-1.029,0.384-2.682
			c0.098-0.631-0.255-1.892-0.095-2.685c0.435-2.157,6.803-14.296,9.638-20.884c0.938-2.184,0.881-3.895,0.901-4.247
			c0.077-1.42,0.039-0.155-0.238-2.17C79.473,60.773,79.549,56.743,78.858,54.44z M70.974,6.978
			c2.896,0.104,5.154,2.537,5.052,5.432c-0.049,1.354-0.619,2.556-1.495,3.456c-0.196,0.159-0.661,0.532-1.154,0.898
			c-0.461,0.263-0.964,0.456-1.497,0.569c1.023-1.367,1.629-2.01,2.242-3.671c0.445-1.225,0.573-2.01,0.197-2.729
			c-1.348-2.577-3.21-3.496-6.355-1.646c-0.47,0.277-1.324,1.098-2.345,2.197c0.009-0.062,0.015-0.126,0.025-0.188
			c0.041-0.154,0.093-0.366,0.143-0.601C66.463,8.475,68.545,6.889,70.974,6.978z M65.758,10.772
			c-0.044,0.205-0.087,0.413-0.087,0.413l-0.016,0.018C65.687,11.056,65.718,10.914,65.758,10.772z"/>
	</g>
</g>
<g>
</g>
<g>
</g>
<g>
</g>
<g>
</g>
<g>
</g>
<g>
</g>
<g>
</g>
<g>
</g>
<g>
</g>
<g>
</g>
<g>
</g>
<g>
</g>
<g>
</g>
<g>
</g>
<g>
</g>
</svg>
