<?xml version="1.0" encoding="iso-8859-1"?>
<!-- Generator: Adobe Illustrator 18.1.1, SVG Export Plug-In . SVG Version: 6.00 Build 0)  -->
<svg version="1.1" id="Capa_1" xmlns="http://www.w3.org/2000/svg" xmlns:xlink="http://www.w3.org/1999/xlink" x="0px" y="0px"
	 viewBox="0 0 98.72 98.72" style="enable-background:new 0 0 98.72 98.72;" xml:space="preserve">
<g>
	<g>
		<path style="fill:#010002;" d="M92.88,79.134c-2.141-2.796-3.977-6.753-4.93-9.479c-4.406-12.606-4.559-13.438-6.762-19.291
			c-0.563-1.49-0.756-7.214-3.381-8.409c-0.135-0.081-0.225-0.119-0.225-0.119s0.008,0.02,0.01,0.025
			c-0.027-0.009-0.051-0.026-0.078-0.034c-0.361-3.84-1.256-7.516-4.711-7.518c-0.604-2.522-1.359-4.76-2.467-6.226
			c-2.509-3.323-7.613,0.542-7.613,0.542s0.619-1.04-0.461-4.514c-0.646-2.072-1.998-5.127-3.19-7.906
			c0.188-0.476,0.384-0.972,0.583-1.479l0.119-0.303l0,0c2.357-6.015,5.238-13.639,4.943-14.261
			C64.227-0.875,39.79,3.393,39.79,3.393l5.734,6.066c0,0-3.742,3.307-7.056,7.679c-4.958,6.54-10.167,15.041-10.167,15.041
			s7.249-6.823,13.964-11.243c2.422-1.594,4.855-2.693,6.698-3.399l0,0l1.43-0.513c0.005-0.001,0.009-0.003,0.014-0.005
			c0.282,3.225,0.739,6.854,0.723,10.303c-0.016,2.701,0.535,6.813,0.654,8.27c0.268,3.214-1.674,5.194-1.993,8.763
			c-0.238,2.672-1.194,17.265-9.758,19.527c-4.912,1.299-9.581-1.405-14.427-2.766c-1.13-0.316-2.965-0.525-4.959-0.462
			c0-0.001,0-0.004,0.001-0.005h0.002l0.415-2.193l-0.002,0.003c0.458-2.339,1.249-6.171,2.216-9.992
			c1.912-7.547,4.353-15.369,4.353-15.369s-4.8,6.074-9.098,12.521C15,50.918,11.816,56.821,11.816,56.821l-6.573-1.709
			c0,0,2.942,22.764,4.084,22.889c0.444,0.049,3.238-2.138,6.485-4.824v0.001l2.069-1.543l-0.106-0.075
			c4.902,1.697,11.079,2.998,13.628,4.962c1.521,1.172,6.166,3.604,10.549,6.526c2.974,1.98,5.199,4.328,8.667,6.13
			c4.634,2.403,8.438,3.211,11.56,4.335c1.567,0.564,4.918,2.279,7.152,4.455C74.005,102.52,97.495,85.161,92.88,79.134z
			 M9.026,66.499c0-3.146,2.551-5.694,5.696-5.694c0.002,0,0.005,0,0.007,0l1.987,0.366c0.004,0.001,0.008,0.003,0.012,0.004
			c-2.561,0.647-4.817,1.957-5.61,4.316c-0.919,2.737,2.236,4.506,6.389,5.973l-1.88,0.652c-0.295,0.047-0.596,0.078-0.905,0.078
			C11.576,72.195,9.026,69.645,9.026,66.499z M53.644,3.844c3.146,0,5.694,2.55,5.694,5.696c0,1.183-0.36,2.282-0.979,3.193l0,0
			l-0.456,0.579c-0.009,0.01-0.019,0.02-0.026,0.03c-0.146-0.368-0.291-0.731-0.412-1.06c-1.299-3.53-1.516-6.676-3.416-6.797
			c-1.446-0.091-2.84,1.549-3.561,4.492c-0.275,1.128-0.329,2.531-0.273,4.105c-0.017-0.012-0.033-0.024-0.05-0.037l-0.392-0.333
			c-1.121-1.04-1.827-2.521-1.827-4.171C47.948,6.394,50.499,3.844,53.644,3.844z"/>
	</g>
</g>
<g>
</g>
<g>
</g>
<g>
</g>
<g>
</g>
<g>
</g>
<g>
</g>
<g>
</g>
<g>
</g>
<g>
</g>
<g>
</g>
<g>
</g>
<g>
</g>
<g>
</g>
<g>
</g>
<g>
</g>
</svg>
