<?xml version="1.0" encoding="iso-8859-1"?>
<!-- Generator: Adobe Illustrator 18.1.1, SVG Export Plug-In . SVG Version: 6.00 Build 0)  -->
<svg version="1.1" id="Capa_1" xmlns="http://www.w3.org/2000/svg" xmlns:xlink="http://www.w3.org/1999/xlink" x="0px" y="0px"
	 viewBox="0 0 100.25 100.25" style="enable-background:new 0 0 100.25 100.25;" xml:space="preserve">
<g>
	<path style="fill:#010002;" d="M83.086,74.539c0.493-6.948-4.597-25.881-7.306-30.031c-1.38-2.114-2.216-7.293-7-8.602
		c-1.883-0.515-3.257-0.06-3.604,0.076c-0.026-0.015-0.047-0.027-0.066-0.038c-0.006-0.565-1.568-4.499-5.283-6.336
		c-2.295-1.134-5.086-0.101-5.182-0.065c-0.069-0.256-0.745-1.777-4.61-4.22c-1.755-1.109-5.125-3.025-7.208-1.711
		c-0.216,0.136-0.412,0.28-0.6,0.427c-0.002-0.001-0.003-0.003-0.005-0.003c-0.004,0.006-0.008,0.01-0.012,0.016
		c-1.175,0.925-1.826,2.045-2.197,3.102c-0.002,0.004-0.004,0.008-0.007,0.012c-0.526,0.953-0.584,2.733-0.588,3.386
		c-0.016,0.063-0.034,0.111-0.06,0.124c-0.081,0.039-1.753-2.634-3.603-6.273c-1.052-2.07-3.709-4.201-4.883-6.464
		c-0.113-0.218-0.218-0.438-0.324-0.657l1.422-0.36l0,0c3.863-0.937,11.182-2.404,19.036-2.371
		c14.371,0.063,26.236,3.135,26.283,2.946c0.072-0.291-10.117-4.582-22.45-7.885C44.466,6.836,30.429,6.859,30.39,6.841L29.828,0
		l-14.89,12.055l7.409,7.102l0.09,0.176c0,0-0.008-0.045-0.02-0.108l0.048,0.046c0.645,2.738,1.652,5.721,2.865,8.417
		c2.974,6.612,5.16,12.483,6.109,15.175c2.134,6.052,2.229,23.236,2.229,23.217l-1.253,0.409c0,0-1-2.476-3.066-5.092
		c0.107-8.935-6.52-11.875-7.776-10.198c-1.085,1.449-0.542,4.199-1.123,6.742c-0.693,3.031-1.961,5.127-1.946,6.736
		c0.013,1.541,1.716,3.985,3.382,7.206c1.532,2.958,2.96,6.684,4.561,8.481c1.722,1.933,8.089,5.352,13.648,7.72
		c5.231,2.227,7.013,2.06,9.722,3.464c2.709,1.401,3.041,6.449,3.766,7.006c5.194,4.005,27.083,1.108,31.139-10.752
		C86.76,81.843,82.834,78.086,83.086,74.539z M24.835,6.934c2.898-0.044,5.194,2.319,5.128,5.279
		c-0.016,0.744-0.181,1.455-0.464,2.103l0,0l-0.001,0.002c-0.039,0.09-0.097,0.168-0.14,0.256c-1.6-3.871-2.776-6.854-6.567-4.289
		c-1.182,0.8-1.33,3.401-0.796,6.667c-0.333-0.196-0.644-0.421-0.923-0.687c-0.097-0.096-0.18-0.181-0.252-0.256
		c-0.858-0.945-1.379-2.216-1.347-3.634C19.538,9.414,21.939,6.978,24.835,6.934z"/>
</g>
<g>
</g>
<g>
</g>
<g>
</g>
<g>
</g>
<g>
</g>
<g>
</g>
<g>
</g>
<g>
</g>
<g>
</g>
<g>
</g>
<g>
</g>
<g>
</g>
<g>
</g>
<g>
</g>
<g>
</g>
</svg>
