<?xml version="1.0" encoding="utf-8"?>
<!-- Generator: Adobe Illustrator 18.0.0, SVG Export Plug-In . SVG Version: 6.00 Build 0)  -->
<!DOCTYPE svg PUBLIC "-//W3C//DTD SVG 1.1//EN" "http://www.w3.org/Graphics/SVG/1.1/DTD/svg11.dtd">
<svg version="1.1" id="Calque_1" xmlns="http://www.w3.org/2000/svg" xmlns:xlink="http://www.w3.org/1999/xlink" x="0px" y="0px"
	 viewBox="0 0 640 100" style="enable-background:new 0 0 640 100;" xml:space="preserve">
<style type="text/css">
	.st0{fill:#1D367C;}
	.st1{fill:#ED462F;}
	.st2{fill:#623B62;}
	.st3{fill:#A84149;}
	.st4{fill:#FFFFFF;}
</style>
<g>
	<circle class="st0" cx="25.1" cy="26" r="23.8"/>
	<circle class="st1" cx="72.4" cy="26" r="23.8"/>
	<circle class="st2" cx="25.1" cy="73.4" r="23.8"/>
	<circle class="st3" cx="72.4" cy="73.4" r="23.8"/>
	<g>
		<path class="st4" d="M46.2,82.8H21.8V17.4h24.4C66.8,17.4,81,31.5,81,50C81,68.5,66.8,82.8,46.2,82.8z M46.2,27.8H33.3v44.5h12.9
			c13.7,0,22.7-9.3,22.7-22.2C68.9,37.3,60,27.8,46.2,27.8z"/>
	</g>
</g>
<g>
	<g>
		<path d="M117.3,1.8h20.9c17.6,0,29.8,12.1,29.8,27.9v0.2c0,15.8-12.2,28.1-29.8,28.1h-20.9V1.8z M127.2,10.8V49h11.1
			C150,49,157.7,41,157.7,30v-0.2c0-11-7.7-19.1-19.5-19.1H127.2z"/>
		<path d="M172.4,36.9v-0.2c0-12.1,8.6-22,20.7-22c13.5,0,20.3,10.6,20.3,22.8c0,0.9-0.1,1.8-0.2,2.7h-31.1
			c1,6.9,5.9,10.7,12.2,10.7c4.7,0,8.1-1.8,11.5-5l5.7,5c-4,4.8-9.5,7.9-17.3,7.9C181.9,58.9,172.4,50,172.4,36.9z M203.8,33.8
			c-0.6-6.3-4.3-11.1-10.7-11.1c-5.9,0-10.1,4.6-11,11.1H203.8z"/>
		<path d="M219.1,15.6h9.7V22c2.7-3.8,6.4-7.3,12.9-7.3c6.1,0,10.4,3,12.7,7.5c3.4-4.5,7.9-7.5,14.3-7.5c9.2,0,14.8,5.9,14.8,16.2
			v27h-9.7v-24c0-6.7-3.1-10.3-8.6-10.3c-5.3,0-9.1,3.7-9.1,10.5v23.9h-9.7V33.8c0-6.6-3.2-10.3-8.6-10.3c-5.4,0-9.1,4-9.1,10.5
			v23.9h-9.7V15.6z"/>
		<path d="M288.8,37v-0.2c0-12.1,9.6-22.1,22.6-22.1c13,0,22.5,9.9,22.5,22v0.2c0,12-9.6,22-22.7,22C298.4,58.9,288.8,49,288.8,37z
			 M324.3,37v-0.2c0-7.5-5.4-13.6-13-13.6c-7.8,0-12.7,6.1-12.7,13.5v0.2c0,7.4,5.4,13.5,12.9,13.5C319.3,50.4,324.3,44.3,324.3,37z
			"/>
		<path d="M337.4,37v-0.2c0-12,9.3-22.1,22-22.1c7.9,0,12.9,3,16.9,7.3l-6.1,6.5c-3-3.1-6.1-5.3-10.9-5.3c-7.1,0-12.3,6.1-12.3,13.5
			v0.2c0,7.5,5.2,13.5,12.7,13.5c4.6,0,7.9-2.1,11-5.2l5.9,5.8c-4.2,4.6-9.1,7.9-17.3,7.9C346.7,58.9,337.4,49,337.4,37z"/>
		<path d="M381.4,15.6h9.7v9.5c2.6-6.3,7.5-10.7,15-10.3v10.3h-0.6c-8.5,0-14.4,5.5-14.4,16.8v16.1h-9.7V15.6z"/>
		<path d="M405.6,45.8v-0.2c0-9.1,7.1-13.6,17.5-13.6c4.7,0,8.1,0.7,11.4,1.8v-1c0-6-3.7-9.2-10.5-9.2c-4.7,0-8.3,1-12.1,2.6
			l-2.6-7.6c4.6-2.1,9.2-3.4,16-3.4c6.3,0,11.1,1.7,14,4.7c3.1,3,4.6,7.5,4.6,13.1v25.1h-9.5v-5.3c-2.9,3.4-7.3,6.2-13.8,6.2
			C412.7,58.8,405.6,54.2,405.6,45.8z M434.6,42.7v-2.9c-2.5-1-5.8-1.7-9.6-1.7c-6.3,0-9.9,2.6-9.9,7.1v0.2c0,4.1,3.6,6.4,8.3,6.4
			C429.8,51.8,434.6,48.1,434.6,42.7z"/>
		<path d="M449.1,37v-0.2c0-12,9.3-22.1,22-22.1c7.9,0,12.9,3,16.9,7.3l-6.1,6.5c-3-3.1-6.1-5.3-10.9-5.3c-7.1,0-12.3,6.1-12.3,13.5
			v0.2c0,7.5,5.2,13.5,12.7,13.5c4.6,0,7.9-2.1,11-5.2l5.9,5.8c-4.2,4.6-9.1,7.9-17.3,7.9C458.4,58.9,449.1,49,449.1,37z"/>
		<path d="M522,15.6h10.1l-16.8,43.5c-3.4,8.7-7.1,11.9-13.9,11.9c-4,0-7.1-1-10-2.6l3.3-7.2c1.8,1,3.7,1.6,5.7,1.6
			c2.7,0,4.4-1.2,6-4.8l-17.6-42.4h10.4L511,47L522,15.6z"/>
		<path d="M536,30.8v-0.2c0-14.9,10.6-28.1,27.1-28.1c16.5,0,27.1,13.2,27.1,28.1v0.2c0,14.9-10.6,28.1-27.1,28.1
			C546.5,58.9,536,45.7,536,30.8z M588.4,30.9v-0.2c0-13.9-10.3-26.6-25.4-26.6c-15.2,0-25.3,12.4-25.3,26.4v0.2
			c0,13.9,10.3,26.6,25.4,26.6C578.3,57.3,588.4,44.9,588.4,30.9z"/>
		<path d="M593,50l1.2-1.2c5.5,5.4,12.5,8.4,20.5,8.4c10.2,0,16.7-5.5,16.7-12.8v-0.2c0-6.7-4-10.3-17.8-13.1
			c-13.5-2.7-18.6-6.7-18.6-14.3v-0.2c0-7.6,7.5-13.9,17.7-13.9c7.2,0,13.5,2.4,18.5,6.2l-1.1,1.4c-4.8-3.7-10.9-6.1-17.6-6.1
			c-9.6,0-15.9,5.9-15.9,12.3v0.2c0,6.6,4.2,10.1,17.6,12.8c14.2,2.9,18.8,7.2,18.8,14.5v0.2c0,8.1-7.1,14.5-18.6,14.5
			C606.2,58.7,598.8,55.5,593,50z"/>
	</g>
</g>
<g>
	<g>
		<path class="st3" d="M118,74.2h17.1v3.7H122v6.3h11.6v3.7H122v9.3h-4V74.2z"/>
		<path class="st3" d="M146.1,74.2h10.2c2.9,0,5.1,0.9,6.6,2.3c1.2,1.2,1.9,3,1.9,5v0.1c0,3.8-2.3,6-5.4,7l6.2,8.7h-4.8l-5.6-8h-5v8
			h-4V74.2z M156,85.5c2.9,0,4.7-1.5,4.7-3.8v-0.1c0-2.5-1.8-3.8-4.8-3.8h-5.9v7.7H156z"/>
		<path class="st3" d="M184.5,74h3.7l10.1,23.1H194l-2.3-5.5h-10.9l-2.4,5.5h-4.1L184.5,74z M190.2,88l-4-9.2l-3.9,9.2H190.2z"/>
		<path class="st3" d="M208.8,74.2h3.7L224.8,90V74.2h4v23h-3.4l-12.7-16.3v16.3h-4V74.2z"/>
		<path class="st3" d="M240.3,85.7L240.3,85.7c0-6.6,4.9-11.9,11.8-11.9c4.2,0,6.8,1.5,9,3.6l-2.6,3c-1.8-1.7-3.8-2.9-6.4-2.9
			c-4.4,0-7.6,3.6-7.6,8.1v0.1c0,4.5,3.2,8.1,7.6,8.1c2.8,0,4.6-1.1,6.6-3l2.6,2.6c-2.4,2.5-5,4.1-9.3,4.1
			C245.2,97.5,240.3,92.3,240.3,85.7z"/>
		<path class="st3" d="M272,74.2h17v3.6h-13v6h11.5v3.6h-11.5v6.2h13.1v3.6H272V74.2z"/>
	</g>
</g>
</svg>
