<?xml version="1.0" encoding="UTF-8" standalone="no"?>
<svg width="128px" height="128px" viewBox="0 0 128 128" version="1.1" xmlns="http://www.w3.org/2000/svg" xmlns:xlink="http://www.w3.org/1999/xlink">
    <!-- Generator: Sketch 40 (33762) - http://www.bohemiancoding.com/sketch -->
    <title>round copy</title>
    <desc>Created with Sketch.</desc>
    <defs>
        <circle id="path-1" cx="64" cy="64" r="64"></circle>
    </defs>
    <g id="Artboard-1" stroke="none" stroke-width="1" fill="none" fill-rule="evenodd">
        <g id="round-copy">
            <mask id="mask-2" fill="white">
                <use xlink:href="#path-1"></use>
            </mask>
            <g id="Oval-6"></g>
            <g id="background" mask="url(#mask-2)">
                <g transform="translate(-39.463259, -108.779553)">
                    <ellipse id="Oval-5" fill="#45256F" cx="149.41853" cy="152.383387" rx="149.41853" ry="144.204473"></ellipse>
                    <ellipse id="Oval-4" fill="#6F2061" cx="129.99361" cy="146.095847" rx="123.654952" ry="122.990415"></ellipse>
                    <ellipse id="Oval-3" fill="#9A1E52" cx="144.051118" cy="122.27476" rx="109.597444" ry="122.27476"></ellipse>
                    <ellipse id="Oval-2" fill="#C31C47" cx="169.456869" cy="122.325879" rx="99.2204473" ry="99.2204473"></ellipse>
                    <ellipse id="Oval" fill="#ED192F" cx="182.389776" cy="114.453674" rx="81.686901" ry="78.1597444"></ellipse>
                </g>
            </g>
            <g id="D-logo" mask="url(#mask-2)">
                <g transform="translate(23.718850, 24.127796)">
                    <g id="outside">
                        <path d="M38.7557528,12.2030771 C35.6448737,5.06479889 28.5262765,0.0746231589 20.2421245,0.0746231589 C9.09390843,0.0746231589 0.0564937002,9.11175191 0.0564937002,20.2596152 C0.0564937002,30.2455117 7.30811419,38.5377551 16.8327552,40.1579029 L16.8327552,12.1964414 L38.01955,12.1964414 C38.266079,12.1964414 38.5114804,12.1986544 38.7557542,12.2030802 L38.7557528,12.2030771 Z" id="Combined-Shape" fill="#FFFFFF"></path>
                        <path d="M38.5556477,69.0511157 C35.3720742,76.0143338 28.3450751,80.8525785 20.1880075,80.8525785 C9.03979146,80.8525785 0.00237672757,71.8154498 0.00237672757,60.6675865 C0.00237672757,50.68169 7.25399722,42.3894466 16.7786382,40.7692988 L16.7786382,69.0554518 L37.965433,69.0554518 C38.1628952,69.0554518 38.3596339,69.0540053 38.5556492,69.0511123 L38.5556477,69.0511157 Z" id="Combined-Shape" fill="#FFFFFF"></path>
                        <path d="M68.1481491,41.9598345 C75.5418047,44.9560683 80.7567119,52.2063335 80.7567119,60.674567 C80.7567119,71.8224302 71.7192972,80.859559 60.5710812,80.859559 C52.3291957,80.859559 45.2410018,75.9201741 42.1053814,68.8401974 C44.9713246,68.5230875 47.6675685,67.8666122 50.1941517,66.8707642 C53.9011828,65.4096449 57.0940523,63.4074003 59.7728558,60.8639704 C62.4516593,58.3205404 64.5216129,55.3171735 65.9827784,51.8537796 C67.2836804,48.7702576 68.0054655,45.4723022 68.1481491,41.9598345 L68.1481491,41.9598345 Z" id="Combined-Shape" fill="#FFFFFF"></path>
                        <path d="M60.72162,0.0746231589 C60.72162,0.0746231589 47.8417805,-0.466529864 42.1053814,12.3046719 C42.1053814,12.3046719 65.9168494,13.6034382 68.0815283,39.0376104 C68.0815283,39.0376104 80.7448998,35.2495422 80.7448998,19.0149642 L80.7448998,0.0746231589 L60.9380879,0.0746231589 L60.72162,0.0746231589 Z" id="Path-3" fill="#FFFFFF"></path>
                    </g>
                    <g id="inside" transform="translate(26.736161, 21.504266)">
                        <path d="M13.5944334,38.5182848 C13.2589721,30.0262046 7.67692426,22.8826086 7.85842853e-08,20.2391073 L0,38.6255314 L11.2022133,38.6255314 C12.0200513,38.6255314 12.8174575,38.5897826 13.5944334,38.5182848 L13.5944334,38.5182848 Z" id="Path" fill="#FFFFFF"></path>
                        <path d="M30.9388054,19.3732631 C21.4112778,20.7284976 14.0262831,28.7360201 13.6374771,38.5423284 C15.6760582,38.3520155 17.5737939,37.915249 19.3307147,37.2320237 C21.7659907,36.2850019 23.8359442,34.9591913 25.5406373,33.254552 C27.2453305,31.5499128 28.5711831,29.5206109 29.5182348,27.1665853 C30.4652866,24.8125597 30.9388054,22.2556392 30.9388054,19.4957472 L30.9388054,19.3732631 L30.9388054,19.3732631 Z" id="Path" fill="#FFFFFF"></path>
                        <path d="M13.6374771,0.10823052 C14.1764792,9.76306504 21.5010042,17.6063684 30.9203082,18.9475451 C30.8802891,16.3256833 30.4076953,13.8768804 29.5025144,11.601069 C28.5554627,9.21998563 27.2296101,7.17715499 25.5249169,5.47251577 C23.8202238,3.76787656 21.7502703,2.42853726 19.3149943,1.45445771 C17.5625904,0.753518331 15.6700948,0.304777749 13.6374771,0.10823052 L13.6374771,0.10823052 Z" id="Path" fill="#FFFFFF"></path>
                        <path d="M7.85842792e-08,18.0617326 C7.57839724,15.4521584 13.115345,8.45725837 13.5789313,0.10884872 C12.806852,0.0362828075 12.0146132,-2.3245871e-14 11.2022133,-2.3245871e-14 L0,-2.3245871e-14 L0,18.0617333 L7.85842792e-08,18.0617326 Z" id="Path" fill="#FFFFFF"></path>
                    </g>
                </g>
            </g>
        </g>
    </g>
</svg>