<?xml version="1.0" encoding="UTF-8" standalone="no"?>
<svg width="85px" height="85px" viewBox="0 0 85 85" version="1.1" xmlns="http://www.w3.org/2000/svg" xmlns:xlink="http://www.w3.org/1999/xlink">
    <!-- Generator: Sketch 39.1 (31720) - http://www.bohemiancoding.com/sketch -->
    <title>logo haut</title>
    <desc>Created with Sketch.</desc>
    <defs></defs>
    <g id="Page-1" stroke="none" stroke-width="1" fill="none" fill-rule="evenodd">
        <g id="logo-haut" fill="#FFFFFF">
            <g id="outside-copy">
                <path d="M40.7087499,12.7783008 C37.4409055,5.32407032 29.9631263,0.113020986 21.2609819,0.113020986 C9.55026187,0.113020986 0.0568475452,9.55014832 0.0568475452,21.1914348 C0.0568475452,31.619324 7.67436205,40.2785961 17.6795866,41.9704544 L17.6795866,12.7713714 L39.9354005,12.7713714 C40.1943686,12.7713714 40.4521522,12.7736823 40.7087513,12.778304 L40.7087499,12.7783008 Z" id="Combined-Shape"></path>
                <path d="M40.498548,72.1425296 C37.1543415,79.4139514 29.772782,84.4663451 21.2041344,84.4663451 C9.49341432,84.4663451 0,75.0292177 0,63.3879312 C0,52.9600421 7.61751451,44.30077 17.622739,42.6089117 L17.622739,72.1470576 L39.878553,72.1470576 C40.0859784,72.1470576 40.292644,72.1455471 40.4985497,72.142526 L40.498548,72.1425296 Z" id="Combined-Shape"></path>
                <path d="M71.5841942,43.8521425 C79.3509104,46.9809947 84.8289456,54.5521689 84.8289456,63.3952206 C84.8289456,75.0365072 75.3355312,84.4736345 63.6248112,84.4736345 C54.967066,84.4736345 47.5212242,79.3156241 44.2273902,71.9222757 C47.2379399,71.5911299 50.0702278,70.9055979 52.7242944,69.8656721 C56.6183707,68.3398811 59.9723423,66.2490138 62.7863099,63.5930074 C65.6002775,60.9370009 67.7746743,57.8006999 69.3095657,54.1840103 C70.6761072,50.9640064 71.4343112,47.520078 71.5841942,43.8521425 L71.5841942,43.8521425 Z" id="Combined-Shape"></path>
                <path d="M63.7829457,0.113020986 C63.7829457,0.113020986 50.25323,-0.452084383 44.2273902,12.8843924 C44.2273902,12.8843924 69.2403101,14.2406442 71.5142119,40.8005759 C71.5142119,40.8005759 84.8165375,36.8448414 84.8165375,19.8916935 L84.8165375,0.113020986 L64.0103359,0.113020986 L63.7829457,0.113020986 Z" id="Path-3"></path>
            </g>
            <g id="inside-copy" transform="translate(28.000000, 23.000000)">
                <path d="M14.2803658,40.2231691 C13.9279782,31.3552152 8.06427776,23.8954315 8.25494018e-08,21.1349243 L0,40.3351627 L11.7674419,40.3351627 C12.6265454,40.3351627 13.4641861,40.2978316 14.2803658,40.2231691 L14.2803658,40.2231691 Z" id="Path"></path>
                <path d="M32.4998804,20.2307565 C22.4916237,21.6459759 14.7340053,30.0079249 14.3255814,40.2482769 C16.4670229,40.0495405 18.4605124,39.593442 20.3060819,38.8799759 C22.8642343,37.8910373 25.0386311,36.5065441 26.8293378,34.7264547 C28.6200444,32.9463652 30.0127953,30.827243 31.0076323,28.3690242 C32.0024694,25.9108055 32.4998804,23.2407114 32.4998804,20.3586619 L32.4998804,20.2307565 L32.4998804,20.2307565 Z" id="Path"></path>
                <path d="M14.3255814,0.113020986 C14.8917798,10.1951948 22.5858774,18.385656 32.4804499,19.7861954 C32.4384116,17.0482856 31.9419722,14.4910945 30.9911187,12.1145519 C29.9962817,9.62807777 28.6035308,7.49482799 26.8128241,5.71473856 C25.0221175,3.93464914 22.8477207,2.53602842 20.2895683,1.51883447 C18.4487436,0.786870325 16.4607586,0.318267727 14.3255814,0.113020986 L14.3255814,0.113020986 Z" id="Path"></path>
                <path d="M8.25493953e-08,18.8611754 C7.96077938,16.136097 13.7771042,8.83159091 14.2640816,0.113666548 C13.4530455,0.0378887459 12.6208329,0 11.7674419,0 L0,0 L0,18.8611761 L8.25493953e-08,18.8611754 Z" id="Path"></path>
            </g>
        </g>
    </g>
</svg>